<mxfile host="app.diagrams.net" modified="2022-06-19T03:35:44.260Z" agent="5.0 (Windows NT 10.0; Win64; x64) AppleWebKit/537.36 (KHTML, like Gecko) Chrome/102.0.5005.124 Safari/537.36 Edg/102.0.1245.44" etag="i1jMVYsmNK79vWKP45ej" version="20.0.0" type="github">
  <diagram id="N0DXFGwutQRXQZ71ztf9" name="Page-1">
    <mxGraphModel dx="1038" dy="579" grid="1" gridSize="10" guides="1" tooltips="1" connect="1" arrows="1" fold="1" page="1" pageScale="1" pageWidth="827" pageHeight="1169" math="0" shadow="0">
      <root>
        <mxCell id="0" />
        <mxCell id="1" parent="0" />
        <mxCell id="-SJbdVNRep6LTL2zWdcr-1" value="&lt;i&gt;&lt;b&gt;&lt;font style=&quot;font-size: 24px;&quot;&gt;s&lt;/font&gt;&lt;/b&gt;&lt;/i&gt;" style="ellipse;whiteSpace=wrap;html=1;aspect=fixed;fillColor=#CCCCCC;" vertex="1" parent="1">
          <mxGeometry x="120" y="280" width="40" height="40" as="geometry" />
        </mxCell>
        <mxCell id="-SJbdVNRep6LTL2zWdcr-2" value="" style="ellipse;whiteSpace=wrap;html=1;aspect=fixed;fillColor=#CCCCCC;" vertex="1" parent="1">
          <mxGeometry x="280" y="200" width="40" height="40" as="geometry" />
        </mxCell>
        <mxCell id="-SJbdVNRep6LTL2zWdcr-3" value="" style="ellipse;whiteSpace=wrap;html=1;aspect=fixed;fillColor=#CCCCCC;" vertex="1" parent="1">
          <mxGeometry x="280" y="280" width="40" height="40" as="geometry" />
        </mxCell>
        <mxCell id="-SJbdVNRep6LTL2zWdcr-4" value="" style="ellipse;whiteSpace=wrap;html=1;aspect=fixed;fillColor=#CCCCCC;" vertex="1" parent="1">
          <mxGeometry x="280" y="120" width="40" height="40" as="geometry" />
        </mxCell>
        <mxCell id="-SJbdVNRep6LTL2zWdcr-5" value="" style="ellipse;whiteSpace=wrap;html=1;aspect=fixed;fillColor=#CCCCCC;" vertex="1" parent="1">
          <mxGeometry x="280" y="360" width="40" height="40" as="geometry" />
        </mxCell>
        <mxCell id="-SJbdVNRep6LTL2zWdcr-6" value="" style="ellipse;whiteSpace=wrap;html=1;aspect=fixed;fillColor=#CCCCCC;" vertex="1" parent="1">
          <mxGeometry x="280" y="440" width="40" height="40" as="geometry" />
        </mxCell>
        <mxCell id="-SJbdVNRep6LTL2zWdcr-7" value="" style="ellipse;whiteSpace=wrap;html=1;aspect=fixed;fillColor=#CCCCCC;" vertex="1" parent="1">
          <mxGeometry x="440" y="120" width="40" height="40" as="geometry" />
        </mxCell>
        <mxCell id="-SJbdVNRep6LTL2zWdcr-8" value="" style="ellipse;whiteSpace=wrap;html=1;aspect=fixed;fillColor=#CCCCCC;" vertex="1" parent="1">
          <mxGeometry x="440" y="200" width="40" height="40" as="geometry" />
        </mxCell>
        <mxCell id="-SJbdVNRep6LTL2zWdcr-9" value="" style="ellipse;whiteSpace=wrap;html=1;aspect=fixed;fillColor=#CCCCCC;" vertex="1" parent="1">
          <mxGeometry x="440" y="280" width="40" height="40" as="geometry" />
        </mxCell>
        <mxCell id="-SJbdVNRep6LTL2zWdcr-10" value="" style="ellipse;whiteSpace=wrap;html=1;aspect=fixed;fillColor=#CCCCCC;" vertex="1" parent="1">
          <mxGeometry x="440" y="360" width="40" height="40" as="geometry" />
        </mxCell>
        <mxCell id="-SJbdVNRep6LTL2zWdcr-11" value="" style="ellipse;whiteSpace=wrap;html=1;aspect=fixed;fillColor=#CCCCCC;" vertex="1" parent="1">
          <mxGeometry x="440" y="440" width="40" height="40" as="geometry" />
        </mxCell>
        <mxCell id="-SJbdVNRep6LTL2zWdcr-12" value="&lt;font style=&quot;font-size: 24px;&quot;&gt;&lt;b&gt;&lt;i&gt;t&lt;/i&gt;&lt;/b&gt;&lt;/font&gt;" style="ellipse;whiteSpace=wrap;html=1;aspect=fixed;fillColor=#CCCCCC;" vertex="1" parent="1">
          <mxGeometry x="600" y="280" width="40" height="40" as="geometry" />
        </mxCell>
        <mxCell id="-SJbdVNRep6LTL2zWdcr-13" value="" style="endArrow=classic;html=1;rounded=0;entryX=-0.01;entryY=0.815;entryDx=0;entryDy=0;entryPerimeter=0;exitX=1;exitY=0;exitDx=0;exitDy=0;" edge="1" parent="1" source="-SJbdVNRep6LTL2zWdcr-1" target="-SJbdVNRep6LTL2zWdcr-4">
          <mxGeometry width="50" height="50" relative="1" as="geometry">
            <mxPoint x="150" y="280" as="sourcePoint" />
            <mxPoint x="200" y="230" as="targetPoint" />
          </mxGeometry>
        </mxCell>
        <mxCell id="-SJbdVNRep6LTL2zWdcr-14" value="1" style="edgeLabel;html=1;align=center;verticalAlign=middle;resizable=0;points=[];fontSize=20;" vertex="1" connectable="0" parent="-SJbdVNRep6LTL2zWdcr-13">
          <mxGeometry x="-0.2669" relative="1" as="geometry">
            <mxPoint x="12" y="-13" as="offset" />
          </mxGeometry>
        </mxCell>
        <mxCell id="-SJbdVNRep6LTL2zWdcr-15" value="" style="endArrow=classic;html=1;rounded=0;fontSize=20;entryX=0;entryY=0.5;entryDx=0;entryDy=0;" edge="1" parent="1" target="-SJbdVNRep6LTL2zWdcr-7">
          <mxGeometry width="50" height="50" relative="1" as="geometry">
            <mxPoint x="320" y="140" as="sourcePoint" />
            <mxPoint x="370" y="90" as="targetPoint" />
          </mxGeometry>
        </mxCell>
        <mxCell id="-SJbdVNRep6LTL2zWdcr-16" value="1" style="edgeLabel;html=1;align=center;verticalAlign=middle;resizable=0;points=[];fontSize=20;" vertex="1" connectable="0" parent="-SJbdVNRep6LTL2zWdcr-15">
          <mxGeometry x="0.3467" y="-1" relative="1" as="geometry">
            <mxPoint x="-21" y="-1" as="offset" />
          </mxGeometry>
        </mxCell>
        <mxCell id="-SJbdVNRep6LTL2zWdcr-17" value="" style="endArrow=classic;html=1;rounded=0;fontSize=20;entryX=0;entryY=0;entryDx=0;entryDy=0;" edge="1" parent="1" target="-SJbdVNRep6LTL2zWdcr-12">
          <mxGeometry width="50" height="50" relative="1" as="geometry">
            <mxPoint x="480" y="150" as="sourcePoint" />
            <mxPoint x="530" y="100" as="targetPoint" />
          </mxGeometry>
        </mxCell>
        <mxCell id="-SJbdVNRep6LTL2zWdcr-18" value="1" style="edgeLabel;html=1;align=center;verticalAlign=middle;resizable=0;points=[];fontSize=20;" vertex="1" connectable="0" parent="-SJbdVNRep6LTL2zWdcr-17">
          <mxGeometry x="0.2858" y="3" relative="1" as="geometry">
            <mxPoint x="-23" y="-15" as="offset" />
          </mxGeometry>
        </mxCell>
        <mxCell id="-SJbdVNRep6LTL2zWdcr-19" value="" style="endArrow=classic;html=1;rounded=0;fontSize=20;entryX=-0.03;entryY=0.715;entryDx=0;entryDy=0;entryPerimeter=0;exitX=1.05;exitY=0.315;exitDx=0;exitDy=0;exitPerimeter=0;" edge="1" parent="1" source="-SJbdVNRep6LTL2zWdcr-1" target="-SJbdVNRep6LTL2zWdcr-2">
          <mxGeometry width="50" height="50" relative="1" as="geometry">
            <mxPoint x="160" y="290" as="sourcePoint" />
            <mxPoint x="210" y="240" as="targetPoint" />
          </mxGeometry>
        </mxCell>
        <mxCell id="-SJbdVNRep6LTL2zWdcr-20" value="" style="endArrow=classic;html=1;rounded=0;fontSize=20;entryX=0;entryY=0.5;entryDx=0;entryDy=0;" edge="1" parent="1" target="-SJbdVNRep6LTL2zWdcr-3">
          <mxGeometry width="50" height="50" relative="1" as="geometry">
            <mxPoint x="160" y="300" as="sourcePoint" />
            <mxPoint x="210" y="250" as="targetPoint" />
          </mxGeometry>
        </mxCell>
        <mxCell id="-SJbdVNRep6LTL2zWdcr-21" value="" style="endArrow=classic;html=1;rounded=0;fontSize=20;entryX=-0.07;entryY=0.335;entryDx=0;entryDy=0;entryPerimeter=0;" edge="1" parent="1" target="-SJbdVNRep6LTL2zWdcr-5">
          <mxGeometry width="50" height="50" relative="1" as="geometry">
            <mxPoint x="160" y="310" as="sourcePoint" />
            <mxPoint x="210" y="260" as="targetPoint" />
          </mxGeometry>
        </mxCell>
        <mxCell id="-SJbdVNRep6LTL2zWdcr-22" value="" style="endArrow=classic;html=1;rounded=0;fontSize=20;entryX=0;entryY=0;entryDx=0;entryDy=0;" edge="1" parent="1" target="-SJbdVNRep6LTL2zWdcr-6">
          <mxGeometry width="50" height="50" relative="1" as="geometry">
            <mxPoint x="150" y="320" as="sourcePoint" />
            <mxPoint x="200" y="270" as="targetPoint" />
          </mxGeometry>
        </mxCell>
        <mxCell id="-SJbdVNRep6LTL2zWdcr-23" value="" style="endArrow=classic;html=1;rounded=0;fontSize=20;entryX=0;entryY=0.5;entryDx=0;entryDy=0;" edge="1" parent="1" target="-SJbdVNRep6LTL2zWdcr-8">
          <mxGeometry width="50" height="50" relative="1" as="geometry">
            <mxPoint x="320" y="220" as="sourcePoint" />
            <mxPoint x="370" y="170" as="targetPoint" />
          </mxGeometry>
        </mxCell>
        <mxCell id="-SJbdVNRep6LTL2zWdcr-24" value="" style="endArrow=classic;html=1;rounded=0;fontSize=20;entryX=0;entryY=0.5;entryDx=0;entryDy=0;" edge="1" parent="1" target="-SJbdVNRep6LTL2zWdcr-9">
          <mxGeometry width="50" height="50" relative="1" as="geometry">
            <mxPoint x="320" y="300" as="sourcePoint" />
            <mxPoint x="370" y="250" as="targetPoint" />
          </mxGeometry>
        </mxCell>
        <mxCell id="-SJbdVNRep6LTL2zWdcr-25" value="" style="endArrow=classic;html=1;rounded=0;fontSize=20;entryX=0;entryY=0.5;entryDx=0;entryDy=0;" edge="1" parent="1" target="-SJbdVNRep6LTL2zWdcr-10">
          <mxGeometry width="50" height="50" relative="1" as="geometry">
            <mxPoint x="320" y="380" as="sourcePoint" />
            <mxPoint x="370" y="330" as="targetPoint" />
          </mxGeometry>
        </mxCell>
        <mxCell id="-SJbdVNRep6LTL2zWdcr-26" value="" style="endArrow=classic;html=1;rounded=0;fontSize=20;entryX=0;entryY=0.5;entryDx=0;entryDy=0;" edge="1" parent="1" target="-SJbdVNRep6LTL2zWdcr-11">
          <mxGeometry width="50" height="50" relative="1" as="geometry">
            <mxPoint x="320" y="460" as="sourcePoint" />
            <mxPoint x="370" y="410" as="targetPoint" />
          </mxGeometry>
        </mxCell>
        <mxCell id="-SJbdVNRep6LTL2zWdcr-27" value="" style="endArrow=classic;html=1;rounded=0;fontSize=20;entryX=0;entryY=0.5;entryDx=0;entryDy=0;exitX=1;exitY=1;exitDx=0;exitDy=0;" edge="1" parent="1" source="-SJbdVNRep6LTL2zWdcr-4" target="-SJbdVNRep6LTL2zWdcr-8">
          <mxGeometry width="50" height="50" relative="1" as="geometry">
            <mxPoint x="320" y="150" as="sourcePoint" />
            <mxPoint x="370" y="100" as="targetPoint" />
          </mxGeometry>
        </mxCell>
        <mxCell id="-SJbdVNRep6LTL2zWdcr-28" value="" style="endArrow=classic;html=1;rounded=0;fontSize=20;entryX=0;entryY=0.5;entryDx=0;entryDy=0;" edge="1" parent="1" target="-SJbdVNRep6LTL2zWdcr-9">
          <mxGeometry width="50" height="50" relative="1" as="geometry">
            <mxPoint x="310" y="160" as="sourcePoint" />
            <mxPoint x="360" y="110" as="targetPoint" />
          </mxGeometry>
        </mxCell>
        <mxCell id="-SJbdVNRep6LTL2zWdcr-29" value="" style="endArrow=classic;html=1;rounded=0;fontSize=20;entryX=-0.03;entryY=0.315;entryDx=0;entryDy=0;entryPerimeter=0;" edge="1" parent="1" target="-SJbdVNRep6LTL2zWdcr-10">
          <mxGeometry width="50" height="50" relative="1" as="geometry">
            <mxPoint x="310" y="160" as="sourcePoint" />
            <mxPoint x="360" y="110" as="targetPoint" />
          </mxGeometry>
        </mxCell>
        <mxCell id="-SJbdVNRep6LTL2zWdcr-30" value="" style="endArrow=classic;html=1;rounded=0;fontSize=20;entryX=-0.05;entryY=0.735;entryDx=0;entryDy=0;entryPerimeter=0;" edge="1" parent="1" target="-SJbdVNRep6LTL2zWdcr-7">
          <mxGeometry width="50" height="50" relative="1" as="geometry">
            <mxPoint x="320" y="210" as="sourcePoint" />
            <mxPoint x="370" y="160" as="targetPoint" />
          </mxGeometry>
        </mxCell>
        <mxCell id="-SJbdVNRep6LTL2zWdcr-31" value="" style="endArrow=classic;html=1;rounded=0;fontSize=20;entryX=0;entryY=1;entryDx=0;entryDy=0;" edge="1" parent="1" target="-SJbdVNRep6LTL2zWdcr-7">
          <mxGeometry width="50" height="50" relative="1" as="geometry">
            <mxPoint x="320" y="290" as="sourcePoint" />
            <mxPoint x="370" y="240" as="targetPoint" />
          </mxGeometry>
        </mxCell>
        <mxCell id="-SJbdVNRep6LTL2zWdcr-32" value="" style="endArrow=classic;html=1;rounded=0;fontSize=20;entryX=0;entryY=1;entryDx=0;entryDy=0;" edge="1" parent="1" target="-SJbdVNRep6LTL2zWdcr-9">
          <mxGeometry width="50" height="50" relative="1" as="geometry">
            <mxPoint x="320" y="450" as="sourcePoint" />
            <mxPoint x="370" y="400" as="targetPoint" />
          </mxGeometry>
        </mxCell>
        <mxCell id="-SJbdVNRep6LTL2zWdcr-33" value="" style="endArrow=classic;html=1;rounded=0;fontSize=20;entryX=0.03;entryY=0.335;entryDx=0;entryDy=0;entryPerimeter=0;" edge="1" parent="1" target="-SJbdVNRep6LTL2zWdcr-12">
          <mxGeometry width="50" height="50" relative="1" as="geometry">
            <mxPoint x="480" y="220" as="sourcePoint" />
            <mxPoint x="530" y="170" as="targetPoint" />
          </mxGeometry>
        </mxCell>
        <mxCell id="-SJbdVNRep6LTL2zWdcr-34" value="" style="endArrow=classic;html=1;rounded=0;fontSize=20;entryX=0;entryY=0.5;entryDx=0;entryDy=0;" edge="1" parent="1" target="-SJbdVNRep6LTL2zWdcr-12">
          <mxGeometry width="50" height="50" relative="1" as="geometry">
            <mxPoint x="480" y="300" as="sourcePoint" />
            <mxPoint x="530" y="250" as="targetPoint" />
          </mxGeometry>
        </mxCell>
        <mxCell id="-SJbdVNRep6LTL2zWdcr-35" value="" style="endArrow=classic;html=1;rounded=0;fontSize=20;entryX=0;entryY=0.75;entryDx=0;entryDy=0;entryPerimeter=0;" edge="1" parent="1" target="-SJbdVNRep6LTL2zWdcr-12">
          <mxGeometry width="50" height="50" relative="1" as="geometry">
            <mxPoint x="480" y="370" as="sourcePoint" />
            <mxPoint x="530" y="320" as="targetPoint" />
          </mxGeometry>
        </mxCell>
        <mxCell id="-SJbdVNRep6LTL2zWdcr-36" value="" style="endArrow=classic;html=1;rounded=0;fontSize=20;entryX=0;entryY=1;entryDx=0;entryDy=0;" edge="1" parent="1" target="-SJbdVNRep6LTL2zWdcr-12">
          <mxGeometry width="50" height="50" relative="1" as="geometry">
            <mxPoint x="480" y="450" as="sourcePoint" />
            <mxPoint x="530" y="400" as="targetPoint" />
          </mxGeometry>
        </mxCell>
      </root>
    </mxGraphModel>
  </diagram>
</mxfile>
